<?xml version="1.0" encoding="UTF-8" standalone="no"?>
<!-- Created with Inkscape (http://www.inkscape.org/) -->

<svg
   width="512"
   height="512"
   viewBox="0 0 135.46666 135.46667"
   version="1.1"
   id="svg5"
   xml:space="preserve"
   inkscape:version="1.2.2 (b0a8486541, 2022-12-01)"
   sodipodi:docname="touchemagique.svg"
   xmlns:inkscape="http://www.inkscape.org/namespaces/inkscape"
   xmlns:sodipodi="http://sodipodi.sourceforge.net/DTD/sodipodi-0.dtd"
   xmlns="http://www.w3.org/2000/svg"
   xmlns:svg="http://www.w3.org/2000/svg"><sodipodi:namedview
     id="namedview7"
     pagecolor="#505050"
     bordercolor="#eeeeee"
     borderopacity="1"
     inkscape:showpageshadow="0"
     inkscape:pageopacity="0"
     inkscape:pagecheckerboard="0"
     inkscape:deskcolor="#505050"
     inkscape:document-units="mm"
     showgrid="false"
     inkscape:zoom="1.0299415"
     inkscape:cx="251.4706"
     inkscape:cy="221.3718"
     inkscape:window-width="1356"
     inkscape:window-height="692"
     inkscape:window-x="0"
     inkscape:window-y="40"
     inkscape:window-maximized="1"
     inkscape:current-layer="layer1" /><defs
     id="defs2" /><g
     inkscape:label="Layer 1"
     inkscape:groupmode="layer"
     id="layer1"><path
       style="display:inline;fill:#000000;stroke-width:0.264583"
       d="m 33.800519,135.26823 c 18.663046,-0.0375 49.202576,-0.0375 67.865621,0 18.66305,0.0375 3.39328,0.0682 -33.93281,0.0682 -37.326092,0 -52.595857,-0.0307 -33.932811,-0.0682 z m 43.679936,-24.41799 c 0.05906,-1.92064 -0.01331,-3.04551 -0.211285,-3.28406 -0.412608,-0.49716 -0.07811,-0.65268 1.735806,-0.80703 2.047481,-0.17423 2.75127,0.416 2.75127,2.30733 0,1.57075 -0.827101,2.58768 -2.104641,2.58768 -0.718918,0 -0.805776,0.0856 -0.805776,0.79375 0,0.43656 0.119063,0.79375 0.264584,0.79375 0.145521,0 0.264583,0.11906 0.264583,0.26458 0,0.14553 -0.446484,0.26473 -0.992187,0.26491 l -0.992188,2.7e-4 0.08983,-2.92124 z m 2.733604,-0.16313 c 0.606324,-0.54871 0.647461,-2.27113 0.06808,-2.85051 -0.806017,-0.80602 -1.447922,-0.31298 -1.561026,1.19899 -0.140235,1.87468 0.483695,2.56488 1.492946,1.65152 z m -42.243791,0.97607 c -0.751047,-0.10052 -1.082763,-0.28306 -1.149292,-0.63244 -0.158208,-0.83082 0.371269,-1.07808 0.98798,-0.46137 0.664417,0.66442 1.419143,0.71264 2.003746,0.12804 0.608353,-0.60835 0.426362,-0.89908 -1.268937,-2.02708 -0.826153,-0.54971 -1.515811,-1.20455 -1.532567,-1.45521 -0.112665,-1.68526 0.441619,-2.19784 2.279425,-2.10795 1.227794,0.0601 1.328936,0.11702 1.406636,0.7923 0.08804,0.76517 -0.306043,0.98141 -0.665885,0.36539 -0.353748,-0.60559 -1.301202,-0.75933 -1.772853,-0.28768 -0.55925,0.55925 -0.24374,1.11039 1.050427,1.83491 1.543921,0.86434 2.04701,1.67878 1.682644,2.724 -0.163639,0.46942 -0.316431,0.85349 -0.339537,0.85349 -0.0231,0 -0.39841,0.0934 -0.834012,0.20745 -0.435602,0.11411 -1.2671,0.14387 -1.847775,0.0661 z m 18.452125,-0.033 c -0.348742,-0.13095 -0.595312,-0.44624 -0.595312,-0.76122 0,-0.64046 0.334846,-0.69377 0.804346,-0.12805 0.432911,0.52162 1.412375,0.39262 1.525474,-0.20092 0.05838,-0.30638 -0.238168,-0.60575 -0.917297,-0.92605 -0.639041,-0.30138 -1.099929,-0.74765 -1.26886,-1.2286 -0.228264,-0.64987 -0.17885,-0.82529 0.353999,-1.25677 0.996831,-0.80718 2.677337,-0.60596 2.677337,0.32059 0,0.58381 -0.09863,0.60898 -0.762291,0.19451 -0.517072,-0.32291 -1.354375,-0.15092 -1.354375,0.27822 0,0.13918 0.506015,0.53137 1.124479,0.87152 0.907682,0.49922 1.140211,0.78021 1.206077,1.45745 0.05925,0.60916 -0.05639,0.91284 -0.42209,1.10856 -0.767937,0.41099 -1.711214,0.51869 -2.371487,0.27076 z m 7.717544,-0.0101 c -1.072158,-0.29254 -1.692543,-1.01293 -1.982084,-2.30158 -0.295757,-1.31632 0.191685,-2.86358 1.120614,-3.55713 1.411562,-1.05388 3.632419,-1.07389 4.030577,-0.0363 0.27573,0.71855 -0.270007,1.07409 -0.847066,0.55186 -1.27708,-1.15574 -3.226564,0.023 -3.226564,1.951 0,1.53401 0.685702,2.58829 1.822074,2.80148 0.75017,0.14073 1.002038,0.0655 1.391626,-0.41561 0.481203,-0.59426 1.019633,-0.54272 1.019633,0.0976 0,0.81147 -1.842138,1.31433 -3.32881,0.90869 z m 5.516895,0.0931 c -0.895014,-0.14316 -1.658919,-1.29264 -1.658919,-2.49624 0,-0.80965 0.180338,-1.22335 0.806024,-1.84903 0.680622,-0.68062 0.948611,-0.78289 1.722496,-0.6573 1.239107,0.20108 1.748115,0.78235 1.905159,2.17563 0.209052,1.8547 -1.020633,3.10751 -2.77476,2.82694 z m 1.368788,-1.17616 c 0.796806,-1.1376 0.214741,-3.11613 -0.916734,-3.11613 -0.694126,0 -1.139883,0.94737 -0.961882,2.04427 0.267803,1.65026 1.129228,2.14176 1.878616,1.07186 z m 13.111876,1.17509 c -0.941329,-0.29706 -1.5875,-1.20804 -1.5875,-2.23807 0,-2.58301 2.06525,-3.73277 3.724518,-2.0735 0.883439,0.88343 1.008928,1.97241 0.369729,3.20849 -0.222017,0.42933 -0.431165,0.78061 -0.464767,0.78061 -0.0336,0 -0.417499,0.10074 -0.853101,0.22386 -0.435602,0.12312 -0.970598,0.1675 -1.188879,0.0986 z m 1.680879,-1.71684 c 0.208479,-0.83064 -0.152125,-2.07344 -0.702312,-2.42049 -0.766945,-0.48378 -1.364613,0.13332 -1.455087,1.5024 -0.06576,0.99512 0.02209,1.27646 0.503928,1.61396 0.712134,0.4988 1.42939,0.19694 1.653471,-0.69587 z m 7.05037,1.68587 c -0.84873,-0.22037 -1.708737,-1.8891 -1.467966,-2.8484 0.246795,-0.98331 1.562216,-2.2056 2.373656,-2.2056 0.997342,0 1.789094,0.9062 1.689598,1.93383 -0.07938,0.81988 -0.121904,0.84661 -1.470808,0.92427 -0.890792,0.0513 -1.389063,0.19839 -1.389063,0.4101 0,0.59986 0.620853,0.96513 1.640417,0.96513 0.904441,0 1.325858,0.31817 0.806979,0.60926 -0.469641,0.26348 -1.571329,0.37018 -2.182813,0.21141 z m 1.5875,-3.18028 c 0,-1.0806 -1.093303,-1.47422 -1.578192,-0.5682 -0.404553,0.75592 -0.360148,0.81114 0.652151,0.81114 0.509323,0 0.926041,-0.10932 0.926041,-0.24294 z m 5.488482,3.1207 c -0.253769,-0.14202 -0.461399,-0.49043 -0.461399,-0.77424 0,-0.62153 0.102463,-0.63444 0.898072,-0.11314 0.65957,0.43217 1.48318,0.28402 1.48318,-0.26679 0,-0.18506 -0.34858,-0.48086 -0.77462,-0.65733 -1.732719,-0.71771 -2.116219,-2.20981 -0.73731,-2.86867 0.9845,-0.4704 2.30568,-0.1836 2.30568,0.50052 0,0.27948 -0.1786,0.50814 -0.39688,0.50814 -0.21828,0 -0.39687,-0.12734 -0.39687,-0.28298 0,-0.15564 -0.26789,-0.24494 -0.59531,-0.19844 -0.9062,0.1287 -0.71189,0.7911 0.40453,1.37901 1.20919,0.63677 1.54951,1.57733 0.82081,2.26851 -0.61906,0.58719 -1.93697,0.84841 -2.549883,0.50541 z m -57.241058,-0.16983 c -0.531749,-0.35506 -0.899504,-1.33727 -0.899504,-2.40243 0,-0.85014 0.156331,-1.18375 0.814051,-1.73718 0.932011,-0.78424 1.537904,-0.85054 2.626804,-0.28745 1.270421,0.65696 1.413674,2.95002 0.25658,4.10712 -0.528182,0.52818 -2.199793,0.71933 -2.797931,0.31994 z m 2.228302,-1.21553 c 0.397354,-0.8153 0.212547,-2.08412 -0.374523,-2.57134 -0.293315,-0.24343 -0.546833,-0.24927 -1.041326,-0.0239 -0.537382,0.24485 -0.653624,0.48703 -0.653624,1.36182 0,0.72197 0.175419,1.23942 0.545703,1.6097 0.665086,0.66509 1.064308,0.56652 1.52377,-0.37622 z m 2.16386,1.16905 c 0,-0.13693 0.119063,-0.32255 0.264583,-0.41249 0.360701,-0.22292 0.33628,-2.86518 -0.02986,-3.23132 -0.418627,-0.41863 -0.05196,-0.86972 0.706937,-0.86972 0.626872,0 0.645843,0.0578 0.645843,1.96876 0,1.08282 0.119062,2.04235 0.264583,2.13228 0.576765,0.35646 0.21077,0.66146 -0.79375,0.66146 -0.582083,0 -1.058333,-0.11203 -1.058333,-0.24897 z m 3.055286,-0.21405 c 0.223595,-0.51383 0.271952,-2.15277 0.09954,-3.37344 -0.105693,-0.74829 -0.05908,-0.79527 0.813927,-0.8204 0.509323,-0.0147 1.223698,-0.10927 1.5875,-0.21024 1.19893,-0.33275 1.685279,0.32909 1.805516,2.45701 0.05846,1.03451 0.211908,1.88092 0.341009,1.88092 0.129098,0 0.234725,0.11907 0.234725,0.26459 0,0.14552 -0.488987,0.26458 -1.086641,0.26458 -0.932649,0 -1.059061,-0.0656 -0.892017,-0.46302 0.369388,-0.87879 0.450842,-1.64941 0.27399,-2.59212 -0.156885,-0.83627 -0.260006,-0.93633 -0.890035,-0.86359 -0.672097,0.0776 -0.717134,0.16999 -0.792604,1.62595 -0.04719,0.91046 0.0475,1.69732 0.230833,1.91823 0.259744,0.31297 0.12687,0.37455 -0.808186,0.37455 -0.966118,0 -1.091504,-0.0633 -0.917554,-0.46302 z m 23.138463,0.21405 c 0,-0.13693 0.119062,-0.32255 0.264583,-0.41249 0.360701,-0.22292 0.33628,-2.86518 -0.02986,-3.23132 -0.462175,-0.46217 -0.02156,-0.86995 0.904557,-0.83712 0.464804,0.0165 1.112988,-0.0575 1.44041,-0.16447 0.483172,-0.1578 0.595313,-0.0952 0.595313,0.33252 0,0.37384 -0.23064,0.57308 -0.79375,0.68571 -0.768927,0.15378 -0.79375,0.20524 -0.79375,1.64534 0,1.26408 0.0792,1.5073 0.529166,1.62497 0.989055,0.25864 0.534175,0.60583 -0.79375,0.60583 -0.727604,0 -1.322916,-0.11203 -1.322916,-0.24897 z m 14.552082,0 c 0,-0.13693 0.11353,-0.31913 0.252288,-0.40489 0.287431,-0.17764 0.238125,-2.91267 -0.05784,-3.20864 -0.106944,-0.10694 -0.194445,-0.36877 -0.194445,-0.58184 0,-0.29134 0.21884,-0.35188 0.882603,-0.24417 0.485431,0.0788 1.04018,0.0458 1.232778,-0.0732 0.451107,-0.2788 1.059619,-0.0452 1.059619,0.40681 0,0.19305 -0.327422,0.38867 -0.727604,0.43471 -0.690158,0.0794 -0.731721,0.16311 -0.807585,1.62623 -0.07095,1.3684 -0.01871,1.55853 0.463021,1.6845 1.001101,0.2618 0.556207,0.60945 -0.779915,0.60945 -0.727604,0 -1.322917,-0.11203 -1.322917,-0.24897 z m 8.466667,-0.0156 c 0,-0.14552 0.119062,-0.26459 0.264583,-0.26459 0.355592,0 0.351443,-5.47133 -0.0043,-5.6912 -0.429564,-0.26549 -0.02275,-0.6588 0.68139,-0.6588 0.434205,0 0.64971,0.15173 0.657643,0.46303 0.09527,3.73806 0.269584,5.72071 0.530621,6.03524 0.267349,0.32214 0.127437,0.3809 -0.906904,0.3809 -0.672661,0 -1.22302,-0.11906 -1.22302,-0.26458 z M 47.643714,105.8449 c -0.198223,-0.12251 -0.287263,-0.41336 -0.197866,-0.64633 0.19852,-0.51733 1.237483,-0.56695 1.237483,-0.0591 0,0.54176 -0.621776,0.96366 -1.039617,0.70543 z m 37.684407,-6.392168 c 1.467538,-0.73102 2.548093,-1.511604 3.523459,-2.545321 1.342874,-1.423212 5.965663,-7.734611 5.792244,-7.908033 -0.293206,-0.293203 -10.425395,0.938808 -10.64031,1.2938 -0.02066,0.03411 -0.418151,0.692914 -0.883328,1.464 -1.173146,1.944637 -3.375244,3.893867 -3.588845,3.176735 -0.05658,-0.189957 -0.673478,-2.410303 -1.370883,-4.934105 l -1.268013,-4.58873 0.328573,-3.993255 c 0.423746,-5.149927 1.139523,-8.921993 1.693013,-8.921993 0.16287,0 0.19403,0.430784 0.08134,1.124479 -0.100473,0.618463 -0.292121,2.13651 -0.425884,3.373437 -0.13376,1.236927 -0.312193,2.754974 -0.396515,3.373438 -0.185793,1.362707 0.08225,1.427165 1.445355,0.347564 1.303607,-1.032475 1.619361,-2.407285 1.80196,-7.845845 0.177779,-5.294992 -0.01127,-6.995427 -0.894429,-8.045 C 79.87402,64.04924 79.824387,64.037231 77.432374,64.07545 75.050841,64.1135 73.81875,63.812864 73.81875,63.193707 c 0,-0.188648 0.136599,-0.174302 0.396838,0.04167 0.280689,0.232952 1.113158,0.291322 2.844271,0.199432 2.943392,-0.156239 3.853021,0.16147 4.567915,1.595445 0.962585,1.930813 0.777718,11.148052 -0.278419,13.881716 -0.09839,0.254662 -0.0885,0.463021 0.02196,0.463021 0.194624,0 1.750882,-1.097142 3.283891,-2.315104 1.15983,-0.921472 1.408639,-0.786855 1.222542,0.661458 -0.08882,0.691224 -0.278736,2.62599 -0.422042,4.299479 -0.259826,3.034165 -0.569915,5.118042 -0.941279,6.32564 -0.177673,0.57776 -0.136583,0.61995 0.441177,0.452974 1.550667,-0.448148 4.862459,-0.95885 7.913139,-1.220263 1.81901,-0.155872 3.634714,-0.353052 4.034896,-0.438179 0.485674,-0.103315 0.727604,-0.04573 0.727604,0.173196 0,0.635519 -5.611318,8.191235 -7.440734,10.019053 -1.280959,1.279837 -4.277251,2.814855 -5.920724,3.033225 -0.961181,0.12771 -0.864026,0.0438 1.058334,-0.913743 z m -3.210362,-7.62427 c 0.862936,-1.585497 1.389171,-4.170325 1.746335,-8.577868 0.151556,-1.870244 0.341627,-3.507353 0.422386,-3.638021 0.373544,-0.604408 -0.540848,-0.06997 -3.337779,1.950861 -3.822986,2.762165 -3.755136,2.396436 -1.704708,9.188645 0.241615,0.800364 0.49865,1.752864 0.571193,2.116666 0.27859,1.397156 0.328554,1.438648 0.987242,0.819844 0.340932,-0.320286 0.932829,-1.157343 1.315331,-1.860127 z M 55.033331,99.83638 c -2.804745,-0.978643 -5.087395,-3.106258 -8.468865,-7.893676 -0.925063,-1.309688 -2.085602,-2.917031 -2.578976,-3.571875 -0.682871,-0.906365 -0.802193,-1.210178 -0.499782,-1.272524 0.622641,-0.128368 9.098827,0.716521 11.084602,1.104887 2.045118,0.399976 1.969024,0.497808 1.529575,-1.966582 -0.325139,-1.823344 -1.076849,-9.849932 -0.935689,-9.99109 0.05824,-0.05824 0.513154,0.145823 1.010925,0.453462 0.497774,0.307641 0.988089,0.559348 1.089592,0.559348 0.101502,0 0.1485,-1.696641 0.104439,-3.770313 -0.07076,-3.330252 -0.01873,-3.893838 0.44568,-4.828645 0.551479,-1.110041 1.002257,-1.382411 6.935525,-4.190601 1.61908,-0.766302 2.253001,-1.22093 2.582494,-1.852083 l 0.436687,-0.836483 -0.167076,0.79375 c -0.253601,1.204791 -0.819444,1.62555 -4.935784,3.670239 -3.051161,1.515589 -3.872764,2.041906 -4.183205,2.679761 -0.283178,0.581837 -0.396081,1.909543 -0.422902,4.973103 l -0.03659,4.179353 1.435563,0.980021 c 1.836806,1.25394 4.116366,3.005069 4.36713,3.354774 0.501349,0.699159 0.09431,-0.395547 -1.013806,-2.726576 -1.589709,-3.344108 -2.264976,-5.064318 -2.168909,-5.525188 0.06915,-0.331737 4.978273,9.143563 5.341668,10.310175 0.269367,0.864753 -0.792486,3.499482 -2.178199,5.404667 -0.754959,1.037974 -1.677487,2.553073 -2.050063,3.366884 -0.372575,0.813813 -0.783603,1.479661 -0.913391,1.479661 -0.517242,0 -2.203477,-1.76739 -2.952517,-3.094614 C 57.327445,90.626836 56.894785,90.17565 56.396284,90.067009 56.010461,89.982927 55.519693,89.8582 55.305685,89.789842 54.822952,89.635646 48.023619,88.9067 47.031931,88.902829 l -0.725355,-0.0028 1.13301,1.521354 c 0.623154,0.836745 1.596665,2.209205 2.163357,3.049908 1.830798,2.716051 4.086257,4.837438 6.241126,5.87013 1.591387,0.762649 1.807049,0.933349 1.166173,0.923059 -0.432459,-0.007 -1.322068,-0.19958 -1.976911,-0.428066 z m 6.200687,-7.568884 c 0.362969,-0.767252 1.154274,-2.047174 1.758458,-2.844271 1.305547,-1.722406 2.156952,-3.493561 1.944952,-4.046027 -0.240641,-0.627097 -7.680764,-6.197062 -7.936359,-5.941467 -0.309701,0.3097 0.732977,8.419793 1.375394,10.698017 0.33297,1.180822 1.713439,3.528747 2.074735,3.528747 0.06758,0 0.419854,-0.62775 0.78282,-1.394999 z M 110.21242,73.19846 c -1.23974,-1.625383 -0.71996,-4.200813 1.08674,-5.384609 1.02489,-0.671529 3.91446,-0.654246 4.93259,0.0295 1.34247,0.901571 1.88663,2.827952 1.26253,4.469461 -0.30784,0.809686 -1.93215,1.836155 -2.72702,1.723326 -0.48847,-0.06933 -0.63269,-0.305713 -0.77838,-1.275728 -0.0984,-0.654844 -0.18765,-1.756172 -0.19844,-2.447396 -0.0171,-1.093261 -0.0918,-1.25677 -0.57408,-1.25677 -0.30496,0 -0.8958,0.243048 -1.31298,0.540107 -0.97523,0.694428 -1.22879,1.942573 -0.66751,3.285892 0.50913,1.21853 0.50862,1.201084 0.0349,1.201084 -0.21087,0 -0.68712,-0.398193 -1.05833,-0.88487 z m 6.44783,-1.952834 c 0.41097,-0.901991 0.14018,-1.584989 -0.82662,-2.08494 -0.60835,-0.314593 -0.85847,-0.340673 -1.0043,-0.104717 -0.18141,0.293529 -0.0851,2.371862 0.14407,3.107523 0.15896,0.510392 1.32524,-0.124214 1.68685,-0.917866 z M 18.520832,72.66643 c -0.509322,-0.180784 -0.903914,-0.448804 -0.876871,-0.5956 0.415961,-2.257849 0.914725,-5.547585 1.169071,-7.710937 l 0.31885,-2.711979 h 1.414266 c 1.59253,0 2.014465,0.607565 0.616152,0.887227 -0.849616,0.169923 -1.12835,0.640098 -1.395251,2.353545 -0.207473,1.331931 0.130165,1.486035 4.565207,2.083634 4.813743,0.648623 5.730053,0.643546 5.906906,-0.03274 0.18548,-0.709279 0.717086,-0.676309 0.717086,0.04447 0,1.337712 -0.60203,3.944149 -0.889195,3.849687 -0.165786,-0.05453 -0.33945,-0.357521 -0.385919,-0.673304 -0.0946,-0.642871 -0.359323,-0.734242 -3.222802,-1.1124 -7.632655,-1.007981 -7.047103,-1.05695 -7.317935,0.611994 -0.210348,1.296218 0.05977,2.214994 0.700458,2.382538 0.652767,0.170702 0.711103,0.988203 0.06904,0.967494 -0.254662,-0.0082 -0.87974,-0.162848 -1.389063,-0.343633 z m 90.483348,-7.188773 c -0.5483,-0.887169 -0.56306,-1.713077 -0.0306,-1.713077 0.13553,0 -0.15839,-0.404812 -0.65316,-0.899583 -1.93507,-1.935073 -0.81019,-3.634123 3.17258,-4.791945 1.27736,-0.371338 1.60269,-0.586333 1.84045,-1.216232 0.15885,-0.420835 0.38333,-0.765156 0.49883,-0.765156 0.24482,0 1.41748,2.32274 1.24523,2.466472 -0.0638,0.05326 -1.18761,0.424005 -2.4973,0.823883 -3.44439,1.051653 -4.31531,2.075675 -2.93732,3.45367 l 0.63456,0.634555 2.16267,-0.708993 c 1.92616,-0.63146 2.17888,-0.790101 2.311,-1.450668 0.19221,-0.961054 0.58109,-0.807606 1.274,0.502706 0.64424,1.218276 0.58241,1.68276 -0.22581,1.696341 -0.3153,0.0053 -1.70436,0.39225 -3.08681,0.859896 -2.0928,0.707938 -2.52769,0.949912 -2.59808,1.445575 -0.11928,0.839843 -0.44354,0.741288 -1.11023,-0.337444 z M 66.050699,61.702471 c -0.275209,-0.438169 0.273878,-1.112891 0.905664,-1.112891 0.800176,0 0.821949,-0.450238 0.05072,-1.048983 l -0.728966,-0.565935 0.661458,0.175739 c 1.080839,0.287162 0.278643,-0.288857 -1.134888,-0.814909 -1.570069,-0.584309 -2.304695,-1.552911 -2.304695,-3.038734 0,-0.909683 0.162406,-1.272501 0.899583,-2.009677 0.528587,-0.528587 1.156007,-0.89476 1.521354,-0.887889 0.542827,0.01021 0.500825,0.07562 -0.330816,0.51517 -1.972048,1.0423 -2.336237,2.627805 -0.950844,4.139531 0.762177,0.831678 0.980562,0.931203 1.697688,0.773694 0.452647,-0.09942 0.888066,-0.350335 0.9676,-0.557593 0.118015,-0.307547 0.05271,-0.319448 -0.355169,-0.06472 -0.741674,0.463185 -1.806225,-0.121994 -2.278594,-1.252532 -0.423804,-1.014304 -0.288898,-1.496618 0.658397,-2.353905 0.76145,-0.689105 1.044472,-0.297339 0.332608,0.460404 -0.570283,0.607039 -0.74441,1.633244 -0.371819,2.191255 0.106913,0.160116 0.462277,0.432194 0.789699,0.604621 0.494983,0.260665 0.595313,0.245046 0.595313,-0.09268 0,-0.223401 -0.174406,-0.406183 -0.387567,-0.406183 -0.44953,0 -0.942883,-0.807751 -0.918578,-1.50396 0.01497,-0.428858 0.04001,-0.423625 0.233355,0.04875 0.334581,0.817467 1.20868,1.487985 1.695984,1.300988 0.643673,-0.246999 0.54065,-1.30153 -0.160173,-1.639525 -0.588092,-0.283625 -0.588484,-0.287324 -0.0324,-0.305014 0.309602,-0.0098 0.685363,0.130921 0.835022,0.312822 0.373409,0.45385 0.605983,2.101257 0.344107,2.437429 -0.117629,0.151003 -0.293436,0.631737 -0.390684,1.0683 -0.129183,0.579937 -0.104468,0.686842 0.09176,0.396875 0.235238,-0.34762 0.382029,-0.20969 0.318492,0.299265 -0.02228,0.178419 1.234493,0.1236 4.120155,-0.179719 1.13774,-0.119591 2.074396,-0.388037 2.567596,-0.735872 0.539043,-0.380166 1.267126,-0.56806 2.381249,-0.614516 l 1.604804,-0.06692 -1.452755,0.258993 c -0.799013,0.142446 -1.870575,0.529357 -2.38125,0.859803 -0.510673,0.330446 -1.43451,0.763074 -2.052974,0.961401 -1.131906,0.362974 -1.437068,0.915805 -0.836842,1.51603 0.167036,0.167037 0.185769,0.350597 0.04468,0.437796 -0.133628,0.08259 -0.404349,-0.261162 -0.601604,-0.763887 -0.347245,-0.884994 -0.506971,-0.973079 -1.781231,-0.982292 -0.327421,-0.0024 -0.595312,-0.0872 -0.595312,-0.188515 0,-0.101314 -0.355298,-0.184211 -0.789548,-0.184211 -0.613223,0 -0.726517,0.07595 -0.50731,0.340082 0.453234,0.546113 0.02024,1.371595 -0.815771,1.555213 -0.421151,0.0925 -0.8055,0.368665 -0.854112,0.613701 -0.06755,0.340532 -0.139049,0.36485 -0.30339,0.103201 z m -37.29422,-1.19937 c -1.204735,-0.370557 -2.247416,-1.317574 -2.735703,-2.48471 -0.501754,-1.199324 -0.445795,-1.938644 0.245713,-3.246305 1.482391,-2.803244 5.684101,-2.865755 7.265094,-0.108087 1.330849,2.321348 0.280252,5.030041 -2.284086,5.888931 -1.063324,0.356145 -1.178635,0.353838 -2.491018,-0.04983 z m 3.619296,-2.049391 c 1.343681,-1.056941 0.702577,-3.002909 -1.259387,-3.82267 -2.778784,-1.16105 -5.421107,0.669477 -3.965718,2.747338 1.123347,1.6038 3.84198,2.163299 5.225105,1.075332 z m 69.550915,0.0192 c -0.61014,-0.945886 -1.11184,-1.86862 -1.11489,-2.050521 -0.007,-0.39547 0.42544,-0.439044 0.6559,-0.06615 0.27967,0.452509 1.19843,0.293365 2.54852,-0.441449 l 1.29722,-0.70603 -0.79092,-0.773269 c -2.02016,-1.975074 -0.9838,-5.52097 1.83547,-6.280123 1.15121,-0.309988 3.06494,0.0028 4.07776,0.666372 0.69938,0.458253 2.50297,3.887216 2.113,4.017205 -0.1452,0.0484 -1.20955,0.633558 -2.36523,1.300348 -1.15568,0.666792 -2.51795,1.451628 -3.02728,1.74408 -0.50932,0.292455 -1.43802,0.875676 -2.06378,1.296051 -0.62576,0.420373 -1.24857,0.764315 -1.38402,0.764315 -0.22986,0 -0.37685,0.431115 -0.58638,1.719792 -0.0654,0.40255 -0.35148,0.11766 -1.19537,-1.190625 z m 6.53026,-5.20976 c 1.10362,-0.682553 2.09317,-1.367162 2.19898,-1.521354 0.27062,-0.394324 -0.0219,-1.229928 -0.68583,-1.959083 -0.47952,-0.52664 -0.73557,-0.597286 -1.69412,-0.467431 -2.72609,0.369297 -4.38416,3.209575 -2.79901,4.794726 0.57475,0.574749 0.77205,0.518681 2.97998,-0.846858 z m -28.847705,6.027857 c 0.241279,-0.152805 0.307972,-0.465476 0.195165,-0.914943 -0.135695,-0.540649 -0.08807,-0.65084 0.228771,-0.529256 0.220084,0.08445 0.400148,0.267703 0.400148,0.40722 0,0.475948 -0.547039,1.277226 -0.869203,1.273164 -0.21898,-0.0028 -0.2046,-0.07804 0.04512,-0.236185 z m -5.90763,-1.457923 c 0.554186,-0.405231 0.805326,-0.360707 0.524886,0.09306 -0.09592,0.155202 -0.368723,0.282186 -0.606232,0.282186 -0.361145,0 -0.347832,-0.06142 0.08135,-0.375242 z M 70.736967,57.68093 c -0.312531,-0.126098 -0.654322,-0.368557 -0.759534,-0.538792 -0.143923,-0.232873 -0.05666,-0.237466 0.352407,-0.01855 0.862136,0.461402 1.46446,0.35292 3.526027,-0.63506 1.062779,-0.509323 2.173809,-0.916403 2.468957,-0.904624 0.376428,0.01503 0.220681,0.170926 -0.521703,0.522227 -0.66844,0.316312 -0.869124,0.503367 -0.544742,0.507751 0.507613,0.0069 0.507632,0.0113 0.0016,0.381259 -0.322903,0.236112 -0.572421,0.276421 -0.675785,0.10917 -0.101788,-0.164695 -0.623189,-0.05591 -1.376223,0.287136 -1.319029,0.600888 -1.613704,0.635408 -2.471078,0.289476 z m 0.05684,-1.675744 c -0.344657,-0.251933 -0.162057,-0.310401 0.96942,-0.310401 0.766733,0 1.810782,-0.08896 2.320105,-0.197691 l 0.926041,-0.197694 -0.926041,0.35489 c -1.436995,0.550707 -2.815069,0.697707 -3.289525,0.350896 z m 6.91847,-1.890339 C 76.71709,52.861104 76.055282,52.748193 74.32732,53.53735 c -0.789037,0.360352 -1.910865,0.731113 -2.492949,0.82391 -0.946441,0.150889 -0.853805,0.0704 0.876226,-0.761302 1.064009,-0.511513 2.343931,-1.006824 2.844271,-1.10069 0.50034,-0.09386 0.909712,-0.250804 0.909712,-0.348753 0,-0.348548 -1.549202,-1.086 -2.289781,-1.089985 -0.538964,-0.0029 -0.647994,-0.0705 -0.383672,-0.237863 0.246567,-0.156125 -0.116065,-0.264668 -1.091433,-0.326678 -0.937223,-0.05959 -1.571085,0.02566 -1.768748,0.237863 -0.169433,0.181901 -0.452196,0.328906 -0.628361,0.326678 -0.199673,-0.0026 -0.170834,-0.100642 0.07658,-0.260532 0.325009,-0.210037 0.295537,-0.257215 -0.162756,-0.260533 -0.307797,-0.0021 -0.862359,0.234074 -1.232357,0.525116 -0.787906,0.619765 -0.986137,0.656153 -0.986137,0.181012 0,-0.191484 0.488448,-0.622676 1.085438,-0.958205 1.01133,-0.568399 1.268743,-0.597243 3.770312,-0.422476 1.956218,0.136666 2.914782,0.328626 3.53201,0.707314 0.947415,0.581263 2.290418,3.027055 2.150501,3.916349 -0.07864,0.499819 -0.159692,0.463052 -0.823899,-0.373724 z m -1.628994,-3.190976 c -0.282475,-0.213653 -0.818256,-0.379312 -1.190625,-0.368128 -0.554911,0.01667 -0.486132,0.08325 0.381299,0.369134 1.382728,0.45571 1.41311,0.455673 0.809326,-0.0011 z m -7.550893,3.454392 c -0.208691,-0.251457 -0.228765,-0.40327 -0.05332,-0.40327 0.319762,0 0.69257,0.501968 0.509084,0.685456 -0.06659,0.0666 -0.27169,-0.06039 -0.455764,-0.282186 z m 5.138491,0.0073 c 0.530386,-0.424003 3.181458,-0.588717 3.414371,-0.212138 0.0675,0.109141 -0.491019,0.198438 -1.241158,0.198438 -0.750139,0 -1.661544,0.09546 -2.025346,0.212137 -0.633491,0.203169 -0.639744,0.194779 -0.147867,-0.198437 z m -2.617028,-0.914805 c 0.469312,-0.447461 2.100106,-1.259745 2.897187,-1.443064 0.450173,-0.103537 0.0069,0.221139 -1.024041,0.750078 -1.845775,0.946991 -2.325833,1.124593 -1.873146,0.692986 z M 35.444045,51.235697 c -0.514887,-0.184152 -1.567376,-0.833768 -2.338861,-1.443593 -1.48884,-1.176858 -1.852962,-1.298913 -2.360602,-0.791273 -0.227531,0.227531 -0.39855,0.23645 -0.60352,0.03148 -0.204973,-0.204973 -0.131069,-0.589751 0.260802,-1.357881 0.300752,-0.589524 0.650375,-1.135862 0.776936,-1.21408 0.126564,-0.07822 0.693812,0.251438 1.260552,0.732575 3.019708,2.563598 4.308911,3.063071 5.20497,2.016548 0.788019,-0.920339 0.55159,-1.493845 -1.19797,-2.905926 -1.485349,-1.198835 -1.754624,-1.320364 -2.645833,-1.194107 -0.545703,0.07731 -0.992187,0.0629 -0.992187,-0.03202 0,-0.09492 0.259228,-0.691641 0.576066,-1.326044 0.527222,-1.05566 1.099405,-1.465574 1.320115,-0.945734 0.04851,0.114247 1.143339,1.027522 2.432957,2.029497 2.051397,1.593837 2.408608,1.7819 2.855034,1.503103 0.859745,-0.536919 1.030963,-0.07718 0.431089,1.157541 -0.486246,1.00084 -0.660141,1.15029 -1.185135,1.018525 -0.491403,-0.123333 -0.581972,-0.06764 -0.449861,0.276637 0.257832,0.671899 -0.421058,1.993937 -1.241893,2.418408 -0.881004,0.455584 -0.90179,0.455846 -2.102659,0.02635 z m 64.47116,-2.94949 c -1.238792,-1.434885 -1.447334,-2.262999 -0.433213,-1.720257 0.784268,0.419727 0.916218,0.357394 2.907558,-1.37351 1.64274,-1.427896 1.87501,-1.740011 1.80469,-2.425144 -0.0444,-0.432483 0.0402,-0.826739 0.18805,-0.876123 0.28818,-0.09628 2.24479,1.411605 2.24479,1.72997 0,0.105024 -0.56555,0.627771 -1.25677,1.161661 -0.69123,0.533889 -1.89132,1.560523 -2.66687,2.281409 -1.22487,1.138524 -1.37258,1.38081 -1.12448,1.844392 0.37034,0.691994 0.36005,0.833059 -0.0608,0.833059 -0.19053,0 -0.91186,-0.654955 -1.602965,-1.455457 z M 93.26562,47.247286 c -1.578348,-0.771559 -3.042708,-2.497253 -3.042708,-3.585712 0,-0.930418 0.751382,-1.592826 1.806771,-1.592826 0.779798,0 0.839062,-0.0643 0.839062,-0.910426 0,-0.990857 0.209146,-1.207622 1.400191,-1.451218 0.661914,-0.135374 0.795848,-0.299405 0.854633,-1.04666 0.152035,-1.932665 1.374162,-2.897965 3.23087,-2.551912 0.772054,0.143894 1.368089,0.582912 2.645391,1.9485 0.90684,0.969518 1.65098,1.911586 1.65365,2.093487 0.006,0.393901 -0.68785,0.443706 -0.92119,0.06615 -0.27928,-0.451885 -0.66387,-0.29269 -0.91993,0.380788 -0.13495,0.354954 -0.50663,0.785191 -0.825942,0.956085 -0.830167,0.444291 -2.800721,0.15684 -3.51318,-0.512479 -0.642088,-0.603213 -1.609862,-0.739926 -1.901174,-0.268576 -0.100383,0.162422 0.529992,1.010854 1.42522,1.918229 0.882867,0.894847 1.728177,1.955411 1.878463,2.356813 0.236415,0.631439 0.17594,0.837631 -0.448646,1.529641 -0.883579,0.978955 -2.874034,1.299479 -4.161481,0.67012 z m 2.711979,-1.154781 c 0.507588,-0.645713 0.422058,-0.851959 -0.864541,-2.084737 -0.824334,-0.78985 -1.423737,-1.14527 -1.931459,-1.14527 -1.551963,0 -1.822698,1.319427 -0.564724,2.752182 1.103604,1.256933 2.582939,1.467263 3.360724,0.477825 z m 3.073173,-5.895044 c 0.758843,-0.596905 0.964208,-1.989145 0.37964,-2.573713 -0.472303,-0.472302 -1.922193,-0.384207 -2.395027,0.145521 -0.669822,0.750422 -0.691084,1.916403 -0.0467,2.560788 0.565005,0.565005 1.229553,0.522274 2.062086,-0.132596 z m -58.172059,3.835712 c -1.764371,-0.919969 -2.514132,-2.1712 -2.514132,-4.19568 0,-0.944438 0.1635,-1.37613 0.792533,-2.09256 1.415675,-1.612363 3.573092,-2.036993 3.573092,-0.703268 0,0.604742 -0.120396,0.673552 -1.40413,0.802515 -0.814785,0.08185 -1.507157,0.303956 -1.649595,0.529167 -0.992569,1.569376 1.133927,4.489151 3.269488,4.489151 0.809016,0 1.919811,-0.865349 2.465604,-1.920798 0.338296,-0.654193 0.466275,-0.73633 0.646234,-0.414764 0.316773,0.566042 -0.197636,2.231663 -0.893117,2.891859 -1.156986,1.098288 -2.88331,1.345747 -4.285977,0.614378 z m 66.561677,-2.721625 c -0.33888,-0.633209 0.21793,-1.455177 0.89561,-1.322092 0.62748,0.123227 1.06604,0.832004 0.85503,1.381871 -0.22732,0.592387 -1.42347,0.55154 -1.75064,-0.05978 z M 47.360414,40.893739 c 0,-0.209693 0.119063,-0.454845 0.264584,-0.544783 0.327665,-0.202509 0.347435,-1.260636 0.02991,-1.600729 -0.129075,-0.138245 -1.002425,-1.739635 -1.940783,-3.558645 -2.340919,-4.53789 -2.347777,-4.547801 -3.056376,-4.41611 -1.00552,0.186872 -0.959789,-0.329751 0.11308,-1.277456 1.107078,-0.977927 1.679173,-1.152255 1.679173,-0.511681 0,0.225137 0.49453,1.3104 1.098955,2.411693 l 1.098957,2.002354 0.819272,-0.950079 c 1.793102,-2.079385 3.482924,-1.679472 4.875257,1.153779 0.250296,0.509323 0.771578,1.417068 1.158407,2.017215 0.588446,0.912947 0.814255,1.069967 1.382487,0.961342 0.461465,-0.08821 0.678802,-0.01392 0.678032,0.231743 -0.0011,0.364448 -3.426497,2.181516 -3.664228,1.943785 -0.07029,-0.07029 0.03671,-0.435178 0.237765,-0.810863 0.332468,-0.621218 0.295336,-0.817197 -0.410104,-2.164572 -1.522148,-2.90726 -2.560113,-3.574388 -3.785327,-2.432925 -0.804241,0.749262 -0.737606,1.197115 0.523338,3.517405 0.973672,1.791671 1.189934,2.028536 1.852083,2.028536 1.169932,0 0.896125,0.400114 -0.97921,1.430928 -1.968952,1.082272 -1.975268,1.08409 -1.975268,0.569063 z m 42.252343,-1.470824 c -0.261369,-0.692447 -0.429496,-0.79375 -1.317329,-0.79375 -1.034603,0 -2.016339,-0.37293 -2.367944,-0.899504 -0.389475,-0.583295 -0.191971,-1.735722 0.392824,-2.292122 0.531887,-0.506058 0.810572,-0.552329 2.615705,-0.434266 1.944503,0.127177 2.031461,0.107844 2.315104,-0.514684 0.452779,-0.993746 0.357389,-1.892678 -0.234455,-2.209424 -0.574095,-0.307247 -1.5875,0.04772 -1.5875,0.556051 0,0.150066 -0.327422,0.235172 -0.727604,0.189127 -0.517229,-0.05951 -0.727604,-0.233355 -0.727604,-0.601253 0,-0.624797 1.939306,-1.285425 3.016964,-1.027736 2.645799,0.632663 2.827793,1.445998 1.089229,4.867759 -1.325578,2.608934 -1.331751,2.632662 -0.802794,3.08557 0.764998,0.655008 0.662933,0.867982 -0.415964,0.867982 -0.811504,0 -0.992442,-0.11502 -1.248632,-0.79375 z m 0.01622,-1.918229 c 0.145528,-0.181901 0.34245,-0.585155 0.437605,-0.896123 0.150508,-0.491866 0.05198,-0.579522 -0.757674,-0.674044 -1.102294,-0.128686 -1.731828,0.163139 -1.731828,0.802793 0,0.971084 1.453899,1.514819 2.051889,0.767374 z m -6.946688,-1.294731 c -0.582084,-0.114461 -1.512464,-0.278641 -2.06751,-0.364836 -1.112565,-0.172779 -1.201433,-0.680003 -0.161832,-0.923674 0.58222,-0.136464 0.671869,-0.358336 0.965104,-2.388547 0.498399,-3.450677 0.779976,-6.339594 0.617453,-6.334946 -0.08083,0.0023 -0.920872,1.268554 -1.866757,2.813874 -2.968241,4.849293 -3.707416,5.913172 -4.108429,5.913172 -0.214217,0 -0.389487,-0.06471 -0.389487,-0.143793 0,-0.07908 -0.403392,-1.954318 -0.896427,-4.167187 -0.493033,-2.212867 -0.985806,-4.559176 -1.09505,-5.214019 -0.263747,-1.581015 -0.416417,-1.149009 -1.343686,3.80225 -0.711031,3.796628 -0.719823,3.946998 -0.250828,4.289938 0.267317,0.195466 0.617977,0.404336 0.77924,0.464156 0.213059,0.07903 0.211474,0.195919 -0.0058,0.427611 -0.224684,0.239597 -0.553516,0.248182 -1.322916,0.03455 -0.56315,-0.156366 -1.403835,-0.284967 -1.868189,-0.285776 -0.464354,-7.94e-4 -0.926094,-0.13385 -1.026086,-0.29564 -0.207491,-0.335733 0.401421,-0.811761 0.836025,-0.653579 0.731547,0.26626 0.856544,-0.0767 1.77604,-4.873091 0.06974,-0.363802 0.318322,-1.613958 0.552402,-2.778125 0.234079,-1.164166 0.425619,-2.202905 0.425646,-2.308309 2.4e-5,-0.105404 -0.370824,-0.383426 -0.824106,-0.617828 -0.591267,-0.305756 -0.743225,-0.507111 -0.537763,-0.712573 0.252886,-0.252886 1.599237,-0.08065 3.622879,0.463474 0.25364,0.0682 1.188836,3.670208 2.009367,7.739299 0.183401,0.909505 0.400058,1.653645 0.48146,1.653645 0.0814,0 0.316682,-0.26789 0.522848,-0.595312 0.960964,-1.526154 3.245064,-5.30463 3.827714,-6.332 0.702,-1.237819 1.09094,-1.340795 3.416419,-0.904532 1.072581,0.201217 1.220152,0.758595 0.239157,0.903295 -0.710674,0.104827 -0.740577,0.208908 -1.379326,4.800945 -0.684903,4.923829 -0.679675,5.401556 0.06462,5.906561 0.843698,0.572447 0.311912,0.937445 -0.992187,0.681 z m -25.20398,-0.754361 c -2.812185,-1.714609 -2.771153,-6.330103 0.06586,-7.408735 0.91468,-0.347761 2.069642,-0.337199 2.867263,0.02622 0.797073,0.363169 1.933924,2.291556 1.567169,2.658311 -0.142028,0.142028 -1.250344,0.529002 -2.462921,0.859946 -1.212578,0.330941 -2.245837,0.725159 -2.296131,0.876043 -0.149122,0.44736 1.195236,1.856494 1.952469,2.046549 0.484618,0.121632 1.098952,-0.02125 1.992344,-0.463388 1.692701,-0.837708 1.947756,-0.401095 0.535331,0.916397 -0.913442,0.852051 -1.273098,1.016233 -2.224349,1.015402 -0.665038,-5.29e-4 -1.491652,-0.218612 -1.997038,-0.526748 z m 1.589918,-4.783376 c 0.691224,-0.169375 1.256771,-0.402301 1.256771,-0.517609 0,-0.457772 -1.614379,-1.553059 -2.057686,-1.396048 -0.859562,0.30444 -1.381897,0.95735 -1.381897,1.727359 0,0.610118 0.09641,0.741804 0.463021,0.632415 0.254661,-0.07599 1.028567,-0.276738 1.719791,-0.446117 z"
       id="path248" /></g></svg>
